<svg id="Capa_1" enable-background="new 0 0 512 512" height="512" viewBox="0 0 512 512" width="512" xmlns="http://www.w3.org/2000/svg"><g><path d="m247.195 262.636c-2.98-4.16-30.182-40.639-67.196-40.638-15.374.001-29.048 6.294-39.999 13.95l-.001-21.71c11.611-9.887 34.374-32.994 34.373-62.239-.001-37.013-36.483-64.213-40.642-67.193-5.223-3.741-12.248-3.741-17.471.001-4.159 2.98-40.639 30.183-40.637 67.196.001 29.245 22.766 52.351 34.377 62.237l.001 21.71c-10.952-7.657-24.626-13.949-40-13.948-37.014.001-64.214 36.482-67.193 40.643-3.741 5.222-3.741 12.248.001 17.47 2.98 4.16 30.182 40.639 67.196 40.638 15.374-.001 29.048-6.294 39.999-13.95l.002 58.472c0 8.284 6.716 15 15.001 14.999s15-6.716 14.999-15.001l-.002-58.472c10.952 7.655 24.626 13.947 40.001 13.947 37.014-.001 64.214-36.482 67.193-40.643 3.74-5.222 3.74-12.247-.002-17.469z" fill="#bee75e"/><path d="m247.196 262.636c-2.98-4.16-30.182-40.639-67.196-40.638-15.374 0-29.048 6.293-40 13.95l-.001-21.71c11.611-9.887 34.374-32.994 34.373-62.239-.001-37.013-36.483-64.213-40.642-67.193-2.609-1.869-5.669-2.804-8.729-2.805v298.273h.004c8.284 0 15-6.716 15-15l-.002-58.472c10.952 7.655 24.627 13.947 40.001 13.947 37.014-.001 64.214-36.482 67.193-40.643 3.74-5.223 3.74-12.248-.001-17.47z" fill="#00cb75"/><path d="m497 512h-482c-8.284 0-15-6.716-15-15v-140c0-8.284 6.716-15 15-15 61.486 0 92.735 5.187 122.956 10.203 30.357 5.038 59.03 9.797 118.044 9.797 19.456 0 36.704-.529 52.714-1.616l142.464-17.205c.337-.041.674-.07 1.012-.088 13.97-.734 28.628-1.091 44.81-1.091 8.284 0 15 6.716 15 15v140c0 8.284-6.716 15-15 15z" fill="#bc8173"/><g><path d="m497 342c-16.182 0-30.84.357-44.811 1.091-.338.018-.675.047-1.012.088l-142.464 17.205c-16.009 1.087-33.257 1.616-52.713 1.616v150h241c8.284 0 15-6.716 15-15v-140c0-8.284-6.716-15-15-15z" fill="#865240"/></g><path d="m296 150c-41.355 0-75-33.645-75-75s33.645-75 75-75 75 33.645 75 75-33.645 75-75 75z" fill="#fff16b"/><g fill="#865240"><circle cx="76" cy="420" r="15"/><circle cx="161" cy="442" r="15"/><circle cx="256" cy="442" r="15"/></g><path d="m296 0v150c41.355 0 75-33.645 75-75s-33.645-75-75-75z" fill="#ffb454"/><g><path d="m428.553 308.405-51.428-13.78 12.681-91.682c1.509-10.905 7.635-20.649 16.809-26.735 9.173-6.086 20.532-7.942 31.165-5.093s19.542 10.136 24.443 19.993c4.902 9.857 5.335 21.36 1.189 31.558z" fill="#5e54ac"/><path d="m462.223 191.108c-4.901-9.857-13.811-17.144-24.443-19.993l-34.941 130.4 25.714 6.89 34.859-85.739c4.146-10.198 3.713-21.7-1.189-31.558z" fill="#453d81"/><path d="m467.091 303.203-120.741-32.352c-7.99-2.141-16.23 2.617-18.371 10.607l-15.198 56.721c-11.423 42.632 22.382 75.634 40.63 89.849l16.429-3.357 12.549 11.121c22.911-3.186 68.687-14.863 80.111-57.497l15.198-56.721c2.141-7.989-2.617-16.23-10.607-18.371z" fill="#fff5f5"/><path d="m467.091 303.203-60.37-16.176-36.881 137.644 12.549 11.121c22.911-3.186 68.687-14.863 80.111-57.497l15.198-56.721c2.141-7.989-2.617-16.23-10.607-18.371z" fill="#e7f1f9"/><path d="m390.545 347.397c-8.002-2.144-16.227 2.605-18.371 10.607l-18.763 70.024c3.897 3.036 7.087 5.218 8.973 6.451 1.344.878 2.795 1.526 4.31 1.932 1.516.406 3.096.57 4.699.482 2.249-.124 6.104-.419 10.996-1.1l18.763-70.024c2.144-8.003-2.605-16.228-10.607-18.372z" fill="#e7f1f9"/><path d="m371.392 436.892c2.249-.124 6.104-.419 10.996-1.1l18.763-70.024c2.144-8.002-2.605-16.227-10.607-18.371l-23.851 89.014c1.517.406 3.097.57 4.699.481z" fill="#b1d5f1"/></g><g><path d="m256 427v30c8.284 0 15-6.716 15-15s-6.716-15-15-15z" fill="#63544f"/></g></g></svg>