<?xml version="1.0" encoding="iso-8859-1"?>
<!-- Generator: Adobe Illustrator 19.0.0, SVG Export Plug-In . SVG Version: 6.00 Build 0)  -->
<svg version="1.1" id="Capa_1" xmlns="http://www.w3.org/2000/svg" xmlns:xlink="http://www.w3.org/1999/xlink" x="0px" y="0px"
	 viewBox="0 0 512 512" style="enable-background:new 0 0 512 512;" xml:space="preserve">
<g>
	<path style="fill:#E0B07B;" d="M255.997,148.501c-4.271,0-7.744,3.475-7.744,7.745v141.987c0,4.271,3.474,7.744,7.744,7.744
		s7.744-3.475,7.744-7.744V156.245C263.742,151.975,260.268,148.501,255.997,148.501z"/>
	<path style="fill:#E0B07B;" d="M304.659,192.914c-1.073,0-2.161,0.224-3.199,0.697l-48.674,22.099
		c-3.886,1.77-5.606,6.372-3.836,10.258c1.255,2.755,4.023,4.536,7.053,4.536c1.108,0,2.186-0.235,3.206-0.699l48.672-22.099
		c3.884-1.77,5.606-6.372,3.837-10.259C310.421,194.598,307.601,192.914,304.659,192.914z"/>
	<path style="fill:#E0B07B;" d="M259.208,215.709l-46.218-21.043c-1.037-0.473-2.126-0.696-3.198-0.696
		c-2.944,0-5.762,1.685-7.06,4.533c-1.77,3.886-0.05,8.487,3.836,10.258l46.218,21.043c1.019,0.464,2.098,0.699,3.206,0.699
		c3.029,0,5.796-1.781,7.052-4.536c0.858-1.883,0.931-3.987,0.206-5.923C262.526,218.106,261.091,216.567,259.208,215.709z"/>
</g>
<path style="fill:#4FD255;" d="M259.31,0.958c-2.02-1.277-4.605-1.277-6.625,0c-27.674,17.495-46.064,48.342-46.064,83.504
	s18.39,66.008,46.064,83.504c2.02,1.277,4.605,1.277,6.625,0c27.674-17.495,46.064-48.342,46.064-83.504
	S286.984,18.454,259.31,0.958z"/>
<path style="fill:#2CB855;" d="M252.689,0.957c-4.5,2.847-8.753,6.051-12.724,9.564c20.442,18.087,33.344,44.498,33.344,73.941
	s-12.901,55.854-33.344,73.941c3.971,3.514,8.223,6.717,12.724,9.564c2.018,1.277,4.602,1.274,6.621-0.002
	c27.673-17.495,46.064-48.342,46.064-83.504c0-35.161-18.39-66.008-46.064-83.503C257.292-0.318,254.707-0.32,252.689,0.957z"/>
<path style="fill:#4FD255;" d="M450.085,137.973c0.325-2.368-0.747-4.72-2.747-6.029c-27.394-17.93-63.089-21.876-95.086-7.298
	s-52.443,44.101-56.891,76.538c-0.325,2.368,0.747,4.72,2.747,6.029c27.395,17.93,63.089,21.875,95.086,7.298
	C425.19,199.933,445.637,170.41,450.085,137.973z"/>
<path style="fill:#2CB855;" d="M447.342,131.948c-4.457-2.915-9.135-5.457-13.979-7.613c-7.984,26.101-26.669,48.791-53.462,60.999
	c-26.793,12.207-56.176,11.417-81.111,0.312c-1.551,5.071-2.703,10.268-3.428,15.544c-0.325,2.366,0.748,4.717,2.747,6.024
	c27.394,17.929,63.089,21.875,95.086,7.298c31.997-14.577,52.443-44.101,56.891-76.538
	C450.409,135.607,449.341,133.255,447.342,131.948z"/>
<path style="fill:#4FD255;" d="M61.915,137.973c-0.325-2.368,0.747-4.72,2.747-6.029c27.394-17.93,63.089-21.876,95.086-7.298
	s52.443,44.101,56.891,76.538c0.325,2.368-0.747,4.72-2.747,6.029c-27.394,17.93-63.089,21.875-95.086,7.298
	C86.809,199.933,66.363,170.41,61.915,137.973z"/>
<path style="fill:#2CB855;" d="M64.658,131.948c4.457-2.915,9.135-5.457,13.979-7.613c7.984,26.101,26.669,48.791,53.462,60.999
	c26.793,12.207,56.176,11.417,81.111,0.312c1.55,5.071,2.703,10.268,3.428,15.544c0.325,2.366-0.748,4.717-2.747,6.024
	c-27.394,17.929-63.089,21.875-95.086,7.298c-31.997-14.577-52.443-44.101-56.891-76.538
	C61.59,135.607,62.659,133.255,64.658,131.948z"/>
<g>
	<path style="fill:#FE8A46;" d="M405.639,319.609c0-11.806-9.571-21.377-21.377-21.377H127.736c-11.806,0-21.377,9.57-21.377,21.377
		v15.183c0,3.421,2.773,6.194,6.194,6.194h286.893c3.421,0,6.194-2.773,6.194-6.194L405.639,319.609z"/>
	<path style="fill:#FE8A46;" d="M159.803,479.936v25.87c0,3.421,2.773,6.194,6.194,6.194h180.006c3.421,0,6.194-2.773,6.194-6.194
		v-25.868h5.374c3.057,0,5.657-2.231,6.121-5.252l20.568-133.701H127.735l20.57,133.701c0.465,3.022,3.065,5.252,6.121,5.252h5.375
		v-0.002H159.803z"/>
</g>
<g>
	<polygon style="fill:#F26C2C;" points="379.435,372.353 384.26,340.986 127.735,340.986 132.562,372.353 	"/>
	<path style="fill:#F26C2C;" d="M405.639,319.608c0-11.805-9.571-21.376-21.377-21.376h-32.068c11.806,0,21.377,9.57,21.377,21.377
		l0.001,21.378h25.873c3.421,0,6.194-2.773,6.194-6.194V319.608z"/>
	<path style="fill:#F26C2C;" d="M352.195,340.986l-21.377,138.952H320.13V512h25.871c3.421,0,6.194-2.773,6.194-6.194v-25.868h5.374
		c3.057,0,5.657-2.231,6.121-5.252l20.568-133.701h-32.064V340.986z"/>
</g>
<g>
</g>
<g>
</g>
<g>
</g>
<g>
</g>
<g>
</g>
<g>
</g>
<g>
</g>
<g>
</g>
<g>
</g>
<g>
</g>
<g>
</g>
<g>
</g>
<g>
</g>
<g>
</g>
<g>
</g>
</svg>
